<svg width="70" height="37" viewBox="0 0 70 37" fill="none" xmlns="http://www.w3.org/2000/svg">
<path d="M19.7052 4.104C19.8252 2.976 20.5932 1.776 22.4892 1.776C24.3372 1.776 25.1052 3.072 25.1052 4.272C25.1052 6.12 23.7372 7.176 21.8412 7.176H21.0492V9H21.9612C24.6972 9.024 25.7292 10.656 25.7292 12.384C25.7292 14.16 24.4572 15.624 22.6092 15.624C20.7132 15.624 19.5852 14.472 19.3212 12.912H17.2092C17.4492 15.336 19.2012 17.4 22.4892 17.4C26.0172 17.4 27.7692 15 27.7692 12.336C27.7692 9.744 26.1132 8.232 24.1212 7.944V7.896C25.7052 7.464 27.1692 6.192 27.1692 4.176C27.1692 1.824 25.3452 0 22.5132 0C19.3212 0 17.8572 2.208 17.6652 4.104H19.7052Z" fill="#C4C4C4"/>
<path d="M29.1738 11.544C29.1738 14.952 31.7418 17.424 35.1258 17.424C38.4858 17.424 41.1018 14.784 41.1018 11.544C41.1018 8.304 38.7498 5.688 35.5578 5.688C34.8858 5.688 34.1418 5.784 33.7098 5.976L37.7418 0.528H35.5338L30.9018 6.912C29.8938 8.304 29.1738 9.696 29.1738 11.544ZM31.2378 11.568C31.2378 9.168 32.7978 7.44 35.1258 7.44C37.5018 7.44 39.0378 9.288 39.0378 11.568C39.0378 13.896 37.3818 15.648 35.1258 15.648C32.8938 15.648 31.2378 13.896 31.2378 11.568Z" fill="#C4C4C4"/>
<path d="M42.7464 8.616C42.7464 15.48 45.9144 17.424 48.6504 17.424C50.9544 17.424 54.5064 15.768 54.5064 8.52C54.5064 1.992 51.4104 0 48.6744 0C45.8184 0 42.7464 2.328 42.7464 8.616ZM52.4664 8.616C52.4664 13.8 50.6424 15.648 48.6984 15.648C46.3704 15.648 44.8104 13.656 44.8104 8.544C44.8104 3.624 46.5624 1.776 48.6264 1.776C51.0504 1.776 52.4664 4.008 52.4664 8.616Z" fill="#C4C4C4"/>
<path d="M55.2389 3.192C55.2389 4.848 56.5829 6.192 58.2629 6.192C59.9189 6.192 61.2629 4.848 61.2629 3.192C61.2629 1.536 59.9189 0.192 58.2629 0.192C56.5829 0.192 55.2389 1.536 55.2389 3.192ZM56.4629 3.216C56.4629 2.208 57.2549 1.392 58.2629 1.392C59.2469 1.392 60.0389 2.208 60.0389 3.216C60.0389 4.224 59.2469 4.992 58.2629 4.992C57.2549 4.992 56.4629 4.224 56.4629 3.216Z" fill="#C4C4C4"/>
<path d="M59.6896 9.35708C59.1669 9.17872 58.5986 9.45784 58.4203 9.98053C58.2419 10.5032 58.521 11.0715 59.0437 11.2499L59.6896 9.35708ZM13.8874 10.3617C14.4208 10.2184 14.7369 9.6698 14.5936 9.13644C14.4502 8.60308 13.9016 8.28692 13.3683 8.43027L13.8874 10.3617ZM38.9281 28.3967C38.3762 28.418 37.9461 28.8827 37.9674 29.4346C37.9887 29.9864 38.4534 30.4165 39.0052 30.3953L38.9281 28.3967ZM31.7126 30.1298C32.1179 29.7547 32.1423 29.122 31.7672 28.7167L25.6534 22.112C25.2782 21.7067 24.6455 21.6823 24.2402 22.0575C23.8349 22.4327 23.8105 23.0654 24.1857 23.4707L29.6202 29.3415L23.7494 34.776C23.3441 35.1511 23.3197 35.7838 23.6948 36.1891C24.07 36.5944 24.7027 36.6188 25.108 36.2437L31.7126 30.1298ZM59.0437 11.2499C61.9662 12.2472 64.2554 13.4043 65.7938 14.6362C67.3421 15.8759 68 17.0792 68 18.1793H70C70 16.2162 68.822 14.4988 67.0439 13.075C65.2561 11.6434 62.7286 10.3941 59.6896 9.35708L59.0437 11.2499ZM2 18.1793C2 16.9036 2.89187 15.4873 4.98807 14.0603C7.05406 12.6539 10.0928 11.3816 13.8874 10.3617L13.3683 8.43027C9.46001 9.48069 6.18483 10.8262 3.86262 12.407C1.57061 13.9673 0 15.9074 0 18.1793H2ZM68 18.1793C68 19.2193 67.4136 20.3501 66.037 21.5217C64.665 22.6894 62.6149 23.7994 59.9767 24.7769C54.709 26.7285 47.3116 28.0732 38.9281 28.3967L39.0052 30.3953C47.5305 30.0662 55.1497 28.6981 60.6715 26.6523C63.4281 25.631 65.7159 24.4212 67.3332 23.0448C68.9458 21.6723 70 20.0348 70 18.1793H68ZM31.0719 28.3967C22.6884 28.0732 15.291 26.7285 10.0233 24.7769C7.38507 23.7994 5.33502 22.6894 3.96304 21.5217C2.58639 20.3501 2 19.2193 2 18.1793H0C0 20.0348 1.05418 21.6723 2.66679 23.0448C4.28406 24.4212 6.57195 25.631 9.32846 26.6523C14.8502 28.6981 22.4695 30.0662 30.9948 30.3953L31.0719 28.3967Z" fill="#C4C4C4"/>
</svg>
